<svg width="1138" height="293" viewBox="0 0 1138 293" fill="none" xmlns="http://www.w3.org/2000/svg">
<path d="M0.900955 9.33117V132.667H38.3614V78.3572L64.845 121.566H82.9654L109.502 76.4093L109.797 132.667H147.258L146.909 9.33117H113.108L74.4733 74.9728L34.7024 9.33117H0.900955Z" fill="white"/>
<path fill-rule="evenodd" clip-rule="evenodd" d="M207.212 9.33117L153.896 132.667H195.713L203.883 111.171H250.267L258.437 132.667H300.95L247.635 9.33117H207.212ZM238.883 81.2181L227.075 50.1519L215.267 81.2181H238.883Z" fill="white"/>
<path d="M327.871 41.5746V132.667H368.99V41.5746H404.708V9.33117H292.153V41.5746H327.871Z" fill="white"/>
<path d="M449.579 130.905C457.942 133.959 467.003 135.486 476.76 135.486C488.724 135.486 499.294 133.371 508.47 129.143C517.763 124.797 525.429 118.689 531.469 110.819L505.508 87.3848C501.908 91.9659 497.9 95.5485 493.486 98.1326C489.188 100.599 484.31 101.833 478.85 101.833C474.553 101.833 470.661 101.128 467.177 99.7184C463.692 98.3088 460.672 96.2532 458.117 93.5516C455.677 90.85 453.761 87.6198 452.367 83.861C450.973 79.9847 450.276 75.6973 450.276 70.9989C450.276 66.3004 450.973 62.0717 452.367 58.3129C453.761 54.4367 455.677 51.1477 458.117 48.4461C460.672 45.7445 463.692 43.6889 467.177 42.2793C470.661 40.8698 474.553 40.165 478.85 40.165C484.31 40.165 489.188 41.4571 493.486 44.0413C497.9 46.508 501.908 50.0318 505.508 54.6129L531.469 31.1792C525.429 23.1917 517.763 17.0837 508.47 12.855C499.294 8.62641 488.724 6.51208 476.76 6.51208C467.003 6.51208 457.942 8.09783 449.579 11.2693C441.332 14.3233 434.13 18.7282 427.974 24.4838C421.934 30.2395 417.23 37.0523 413.861 44.9222C410.493 52.7922 408.808 61.4844 408.808 70.9989C408.808 80.5133 410.493 89.2055 413.861 97.0755C417.23 104.945 421.934 111.758 427.974 117.514C434.13 123.27 441.332 127.733 449.579 130.905Z" fill="white"/>
<path d="M663.563 9.33117H622.444V53.0271H584.461V9.33117H543.342V132.667H584.461V87.2086H622.444V132.667H663.563V9.33117Z" fill="white"/>
<path fill-rule="evenodd" clip-rule="evenodd" d="M2.26766 147.538V287.846H49.0456V253.37H69.065C82.0148 253.37 93.1807 251.232 102.563 246.956C112.077 242.547 119.411 236.4 124.564 228.516C129.718 220.632 132.295 211.278 132.295 200.454C132.295 189.63 129.718 180.276 124.564 172.392C119.411 164.375 112.077 158.228 102.563 153.952C93.1807 149.676 82.0148 147.538 69.065 147.538H2.26766ZM49.0456 216.89H66.0918C72.5667 216.89 77.3238 215.42 80.3631 212.48C83.5344 209.541 85.1201 205.532 85.1201 200.454C85.1201 195.376 83.5344 191.367 80.3631 188.428C77.3238 185.488 72.5667 184.018 66.0918 184.018H49.0456V216.89Z" fill="white"/>
<path d="M364.365 147.538H317.587V287.846H364.365V147.538Z" fill="white"/>
<path d="M425.336 147.538H386.883V287.846H432.472V224.045L485.196 287.846H523.649V147.538H478.061V211.339L425.336 147.538Z" fill="white"/>
<path d="M576.316 184.218V287.846H623.094V184.218H663.728V147.538H535.683V184.218H576.316Z" fill="white"/>
<path fill-rule="evenodd" clip-rule="evenodd" d="M222.749 292.695C266.007 292.695 301.075 259.043 301.075 217.53C301.075 176.018 266.007 142.365 222.749 142.365C179.491 142.365 144.424 176.018 144.424 217.53C144.424 259.043 179.491 292.695 222.749 292.695ZM222.749 278.147C258.062 278.147 286.689 251.008 286.689 217.53C286.689 184.052 258.062 156.913 222.749 156.913C187.437 156.913 158.81 184.052 158.81 217.53C158.81 251.008 187.437 278.147 222.749 278.147Z" fill="white"/>
<path d="M275.499 217.53C275.499 245.652 251.882 268.449 222.749 268.449C193.616 268.449 169.999 245.652 169.999 217.53C169.999 189.409 193.616 166.612 222.749 166.612C251.882 166.612 275.499 189.409 275.499 217.53Z" fill="white"/>
<path d="M652.217 244.645C652.217 235.012 654.177 226.611 658.097 219.443C662.017 212.163 667.45 206.562 674.394 202.642C681.339 198.61 689.291 196.594 698.252 196.594C709.788 196.594 719.309 199.506 726.813 205.33C734.43 211.043 739.526 219.107 742.102 229.524H716.733C715.389 225.491 713.092 222.355 709.844 220.115C706.708 217.763 702.788 216.587 698.084 216.587C691.363 216.587 686.043 219.051 682.123 223.979C678.202 228.796 676.242 235.684 676.242 244.645C676.242 253.493 678.202 260.381 682.123 265.31C686.043 270.126 691.363 272.534 698.084 272.534C707.604 272.534 713.821 268.278 716.733 259.765H742.102C739.526 269.846 734.43 277.854 726.813 283.791C719.197 289.727 709.676 292.695 698.252 292.695C689.291 292.695 681.339 290.735 674.394 286.815C667.45 282.783 662.017 277.182 658.097 270.014C654.177 262.734 652.217 254.277 652.217 244.645Z" fill="white"/>
<path d="M771.094 166.856V291.183H747.573V166.856H771.094Z" fill="white"/>
<path d="M794.502 187.017C790.357 187.017 786.885 185.729 784.085 183.153C781.397 180.465 780.053 177.161 780.053 173.24C780.053 169.32 781.397 166.072 784.085 163.496C786.885 160.808 790.357 159.464 794.502 159.464C798.646 159.464 802.062 160.808 804.75 163.496C807.55 166.072 808.95 169.32 808.95 173.24C808.95 177.161 807.55 180.465 804.75 183.153C802.062 185.729 798.646 187.017 794.502 187.017ZM806.094 198.106V291.183H782.573V198.106H806.094Z" fill="white"/>
<path d="M811.524 244.645C811.524 235.012 813.484 226.611 817.405 219.443C821.325 212.163 826.757 206.562 833.702 202.642C840.646 198.61 848.599 196.594 857.559 196.594C869.096 196.594 878.616 199.506 886.121 205.33C893.737 211.043 898.833 219.107 901.41 229.524H876.04C874.696 225.491 872.4 222.355 869.152 220.115C866.016 217.763 862.095 216.587 857.391 216.587C850.671 216.587 845.35 219.051 841.43 223.979C837.51 228.796 835.55 235.684 835.55 244.645C835.55 253.493 837.51 260.381 841.43 265.31C845.35 270.126 850.671 272.534 857.391 272.534C866.912 272.534 873.128 268.278 876.04 259.765H901.41C898.833 269.846 893.737 277.854 886.121 283.791C878.504 289.727 868.984 292.695 857.559 292.695C848.599 292.695 840.646 290.735 833.702 286.815C826.757 282.783 821.325 277.182 817.405 270.014C813.484 262.734 811.524 254.277 811.524 244.645Z" fill="white"/>
<path d="M961.988 291.183L930.402 251.533V291.183H906.88V166.856H930.402V237.588L961.652 198.106H992.229L951.235 244.813L992.565 291.183H961.988Z" fill="white"/>
<path d="M1079.76 242.628C1079.76 245.989 1079.54 249.013 1079.09 251.701H1011.04C1011.6 258.421 1013.96 263.686 1018.1 267.494C1022.24 271.302 1027.34 273.206 1033.39 273.206C1042.13 273.206 1048.34 269.454 1052.04 261.95H1077.41C1074.72 270.91 1069.57 278.303 1061.95 284.127C1054.33 289.839 1044.98 292.695 1033.89 292.695C1024.93 292.695 1016.87 290.735 1009.7 286.815C1002.64 282.783 997.099 277.126 993.067 269.846C989.147 262.566 987.186 254.165 987.186 244.645C987.186 235.012 989.147 226.555 993.067 219.275C996.987 211.995 1002.48 206.394 1009.53 202.474C1016.59 198.554 1024.71 196.594 1033.89 196.594C1042.74 196.594 1050.64 198.498 1057.58 202.306C1064.64 206.114 1070.07 211.547 1073.88 218.603C1077.8 225.547 1079.76 233.556 1079.76 242.628ZM1055.4 235.908C1055.29 229.86 1053.1 225.043 1048.85 221.459C1044.59 217.763 1039.38 215.915 1033.22 215.915C1027.4 215.915 1022.47 217.707 1018.44 221.291C1014.52 224.763 1012.11 229.636 1011.21 235.908H1055.4Z" fill="white"/>
<path d="M1108.69 212.555C1111.71 207.626 1115.63 203.762 1120.45 200.962C1125.38 198.162 1130.98 196.762 1137.25 196.762V221.459H1131.03C1123.64 221.459 1118.04 223.195 1114.23 226.668C1110.54 230.14 1108.69 236.188 1108.69 244.813V291.183H1085.17V198.106H1108.69V212.555Z" fill="white"/>
<path d="M1093.7 92.9644C1093.7 119.976 1071.81 141.874 1044.79 141.874C1017.78 141.874 995.884 119.976 995.884 92.9644C995.884 65.9524 1017.78 44.0549 1044.79 44.0549C1071.81 44.0549 1093.7 65.9524 1093.7 92.9644Z" fill="white"/>
<path d="M1093.7 92.9644C1093.7 119.976 1071.81 141.874 1044.79 141.874C1017.78 141.874 995.884 119.976 995.884 92.9644C995.884 65.9524 1017.78 44.0549 1044.79 44.0549C1071.81 44.0549 1093.7 65.9524 1093.7 92.9644Z" fill="#FF5C00"/>
<path d="M1093.7 92.9644C1093.7 119.976 1071.81 141.874 1044.79 141.874C1017.78 141.874 995.884 119.976 995.884 92.9644C995.884 65.9524 1017.78 44.0549 1044.79 44.0549C1071.81 44.0549 1093.7 65.9524 1093.7 92.9644Z" fill="url(#paint0_radial_1522_226)"/>
<path d="M1093.7 92.9644C1093.7 119.976 1071.81 141.874 1044.79 141.874C1017.78 141.874 995.884 119.976 995.884 92.9644C995.884 65.9524 1017.78 44.0549 1044.79 44.0549C1071.81 44.0549 1093.7 65.9524 1093.7 92.9644Z" fill="url(#paint1_radial_1522_226)"/>
<path d="M1137.25 92.9644C1137.25 144.027 1095.86 185.421 1044.79 185.421C993.731 185.421 952.337 144.027 952.337 92.9644C952.337 41.9019 993.731 0.507568 1044.79 0.507568C1095.86 0.507568 1137.25 41.9019 1137.25 92.9644ZM980.074 92.9644C980.074 128.708 1009.05 157.684 1044.79 157.684C1080.54 157.684 1109.51 128.708 1109.51 92.9644C1109.51 57.2207 1080.54 28.2446 1044.79 28.2446C1009.05 28.2446 980.074 57.2207 980.074 92.9644Z" fill="white"/>
<path d="M1137.25 92.9644C1137.25 144.027 1095.86 185.421 1044.79 185.421C993.731 185.421 952.337 144.027 952.337 92.9644C952.337 41.9019 993.731 0.507568 1044.79 0.507568C1095.86 0.507568 1137.25 41.9019 1137.25 92.9644ZM980.074 92.9644C980.074 128.708 1009.05 157.684 1044.79 157.684C1080.54 157.684 1109.51 128.708 1109.51 92.9644C1109.51 57.2207 1080.54 28.2446 1044.79 28.2446C1009.05 28.2446 980.074 57.2207 980.074 92.9644Z" fill="#FF5C00"/>
<path d="M1137.25 92.9644C1137.25 144.027 1095.86 185.421 1044.79 185.421C993.731 185.421 952.337 144.027 952.337 92.9644C952.337 41.9019 993.731 0.507568 1044.79 0.507568C1095.86 0.507568 1137.25 41.9019 1137.25 92.9644ZM980.074 92.9644C980.074 128.708 1009.05 157.684 1044.79 157.684C1080.54 157.684 1109.51 128.708 1109.51 92.9644C1109.51 57.2207 1080.54 28.2446 1044.79 28.2446C1009.05 28.2446 980.074 57.2207 980.074 92.9644Z" fill="url(#paint2_radial_1522_226)"/>
<path d="M1137.25 92.9644C1137.25 144.027 1095.86 185.421 1044.79 185.421C993.731 185.421 952.337 144.027 952.337 92.9644C952.337 41.9019 993.731 0.507568 1044.79 0.507568C1095.86 0.507568 1137.25 41.9019 1137.25 92.9644ZM980.074 92.9644C980.074 128.708 1009.05 157.684 1044.79 157.684C1080.54 157.684 1109.51 128.708 1109.51 92.9644C1109.51 57.2207 1080.54 28.2446 1044.79 28.2446C1009.05 28.2446 980.074 57.2207 980.074 92.9644Z" fill="url(#paint3_radial_1522_226)"/>
<defs>
<radialGradient id="paint0_radial_1522_226" cx="0" cy="0" r="1" gradientUnits="userSpaceOnUse" gradientTransform="translate(979.707 28.8788) rotate(45.4929) scale(219.504)">
<stop stop-color="#D6A425"/>
<stop offset="1" stop-color="#D68F25" stop-opacity="0"/>
</radialGradient>
<radialGradient id="paint1_radial_1522_226" cx="0" cy="0" r="1" gradientUnits="userSpaceOnUse" gradientTransform="translate(976.369 177.744) rotate(-48.2344) scale(192.425)">
<stop stop-color="#FFE600"/>
<stop offset="1" stop-color="#D5C426" stop-opacity="0.01"/>
</radialGradient>
<radialGradient id="paint2_radial_1522_226" cx="0" cy="0" r="1" gradientUnits="userSpaceOnUse" gradientTransform="translate(979.707 28.8788) rotate(45.4929) scale(219.504)">
<stop stop-color="#D6A425"/>
<stop offset="1" stop-color="#D68F25" stop-opacity="0"/>
</radialGradient>
<radialGradient id="paint3_radial_1522_226" cx="0" cy="0" r="1" gradientUnits="userSpaceOnUse" gradientTransform="translate(976.369 177.744) rotate(-48.2344) scale(192.425)">
<stop stop-color="#FFE600"/>
<stop offset="1" stop-color="#D5C426" stop-opacity="0.01"/>
</radialGradient>
</defs>
</svg>
