<svg width="1114" height="268" viewBox="0 0 1114 268" fill="none" xmlns="http://www.w3.org/2000/svg">
<path fill-rule="evenodd" clip-rule="evenodd" d="M53.6921 89.6377V268H121.859L142.361 213.671L213.603 268H282.795V56.3229L336.099 48.6349L328.924 0.456573L0.900955 47.0973L8.07645 96.3007L53.6921 89.6377ZM233.592 62.9859V175.744L195.664 69.1363L233.592 62.9859ZM103.408 175.744V82.4622L139.798 76.8243L103.408 175.744ZM159.787 164.98L168.5 140.891L183.876 183.432L159.787 164.98Z" fill="white"/>
<path d="M587.915 171C587.915 152.139 591.69 135.344 599.238 120.614C606.967 105.884 617.93 94.4778 632.129 86.3944C646.327 78.1315 663.042 74 682.273 74C698.808 74 713.545 77.1435 726.486 83.4306C739.606 89.538 750.21 98.25 758.298 109.567C766.565 120.883 772.047 134.086 774.743 149.175H711.658C708.783 142.888 704.649 138.038 699.257 134.625C694.045 131.032 688.024 129.236 681.194 129.236C671.13 129.236 663.132 133.008 657.201 140.553C651.449 148.097 648.574 158.246 648.574 171C648.574 183.754 651.449 193.903 657.201 201.447C663.132 208.992 671.13 212.764 681.194 212.764C688.024 212.764 694.045 211.057 699.257 207.644C704.649 204.052 708.783 199.112 711.658 192.825H774.743C772.047 207.914 766.565 221.117 758.298 232.433C750.21 243.75 739.606 252.552 726.486 258.839C713.545 264.946 698.808 268 682.273 268C663.042 268 646.327 263.958 632.129 255.875C617.93 247.612 606.967 236.116 599.238 221.386C591.69 206.656 587.915 189.861 587.915 171Z" fill="white"/>
<path d="M885.331 237.822H821.708L812.272 266.653H749.457L819.281 75.8861H888.297L957.852 266.653H894.767L885.331 237.822ZM870.773 192.825L853.519 139.744L836.266 192.825H870.773Z" fill="white"/>
<path d="M1113.95 141.361C1113.95 153.396 1111.16 164.354 1105.59 174.233C1100.02 183.933 1091.75 191.657 1080.79 197.406C1070 203.154 1056.88 206.028 1041.43 206.028H1017.7V266.653H957.852V75.8861H1041.43C1064.79 75.8861 1082.67 81.8139 1095.07 93.6694C1107.66 105.525 1113.95 121.422 1113.95 141.361ZM1034.69 158.875C1047.09 158.875 1053.29 153.037 1053.29 141.361C1053.29 129.685 1047.09 123.847 1034.69 123.847H1017.7V158.875H1034.69Z" fill="white"/>
<path d="M528.605 147.019V123.578H596.003V75.8861H468.756V138.667V171.269V205.489L502.975 171.269V239.708L468.756 205.489V239.708V266.653H596.003V218.961H528.605V192.017H587.915V171V147.019H528.605Z" fill="white"/>
<path fill-rule="evenodd" clip-rule="evenodd" d="M468.756 266.653H402.975L367.119 230.797V266.653H307V75.8861H395.966C411.422 75.8861 424.632 78.6704 435.596 84.2389C446.559 89.6278 454.737 97.0824 460.129 106.603C465.7 115.944 468.756 126.811 468.756 138.667V171.269L434.536 205.489L468.756 239.708V266.653ZM366.85 158.336H390.574C396.325 158.336 400.638 157.079 403.514 154.564C406.39 151.869 407.828 147.738 407.828 142.169C407.828 137.14 406.3 133.188 403.245 130.314C400.369 127.44 396.145 126.003 390.574 126.003H366.85V158.336Z" fill="white"/>
</svg>
