<svg width="129" height="103" viewBox="0 0 129 103" fill="none" xmlns="http://www.w3.org/2000/svg">
<path d="M29.4555 32.8065L21.9337 9.23735H30.0935L36.1713 29.1364H32.0746L38.5218 9.23735H45.8085L51.8192 29.1364H47.8904L54.2369 9.23735H61.7586L54.2369 32.8065H45.7414L40.8388 16.5101H43.1222L37.951 32.8065H29.4555Z" fill="white"/>
<path d="M63.5184 32.8065C63.5184 24.3889 71.4431 18.7768 71.4431 9.23735L63.5184 9.20368C63.5184 18.7768 71.4431 24.3889 71.4431 32.8065H63.5184Z" fill="white"/>
<path d="M118.555 32.8065C120.541 32.8065 124.297 32.8065 124.297 32.8065H128.575V27.2283H122.666C122.666 27.2283 119.864 27.2283 118.555 27.2283C117.788 27.2283 117.19 27.183 116.761 27.0923C116.31 26.9789 115.983 26.8315 115.78 26.6501C115.577 26.446 115.475 26.2079 115.475 25.9358C115.475 25.505 115.712 25.1648 116.186 24.9154C116.66 24.666 117.292 24.4619 118.082 24.3032C118.849 24.1218 119.695 23.9403 120.62 23.7589C121.546 23.5549 122.482 23.2941 123.43 22.9766C124.355 22.6592 125.213 22.2397 126.002 21.7181C126.77 21.1966 127.39 20.5163 127.864 19.6773C128.338 18.8157 128.575 17.7499 128.575 16.4801C128.575 15.0062 128.169 13.6683 127.356 12.4665C126.521 11.242 125.292 10.267 123.667 9.54135C122.019 8.81573 120.045 8.99713 117.608 8.99713C116.005 8.99713 112.733 8.99713 112.733 8.99713H107.588V14.5753H112.733C112.733 14.5753 116.57 14.5753 117.608 14.5753C118.375 14.5753 118.984 14.6434 119.436 14.7794C119.887 14.9155 120.214 15.0969 120.417 15.3236C120.598 15.5504 120.688 15.7998 120.688 16.0719C120.688 16.4801 120.451 16.8089 119.977 17.0583C119.503 17.2851 118.883 17.4778 118.115 17.6365C117.326 17.7953 116.468 17.9653 115.543 18.1467C114.595 18.3281 113.659 18.5776 112.733 18.895C111.808 19.2125 110.962 19.632 110.195 20.1535C109.405 20.6751 108.773 21.3553 108.299 22.1943C107.825 23.0333 107.588 24.0764 107.588 25.3236C107.588 26.7748 108.006 28.1127 108.841 29.3371C109.653 30.5389 110.872 31.514 112.496 32.2623C114.121 32.9879 116.096 32.8065 118.555 32.8065Z" fill="white"/>
<path d="M83.663 32.7657C81.6772 32.7657 77.9214 32.7657 77.9214 32.7657H73.6434V27.1875H79.5521C79.5521 27.1875 82.3542 27.1875 83.663 27.1875C84.4303 27.1875 85.0283 27.1421 85.4571 27.0514C85.9084 26.938 86.2357 26.7907 86.4388 26.6093C86.6419 26.4052 86.7434 26.1671 86.7434 25.895C86.7434 25.4641 86.5065 25.124 86.0326 24.8746C85.5587 24.6251 84.9268 24.4211 84.1369 24.2623C83.3697 24.0809 82.5234 23.8995 81.5982 23.7181C80.673 23.514 79.7365 23.2533 78.7887 22.9358C77.8634 22.6183 77.0059 22.1988 76.216 21.6773C75.4488 21.1558 74.8282 20.4755 74.3543 19.6365C73.8804 18.7748 73.6434 17.7091 73.6434 16.4392C73.6434 14.9653 74.0497 13.6275 74.8621 12.4257C75.697 11.2012 76.9269 10.2261 78.5517 9.50051C80.1991 8.77489 82.1737 8.9563 84.6109 8.9563C86.2131 8.9563 89.4853 8.9563 89.4853 8.9563H94.6304V14.5345H89.4853C89.4853 14.5345 85.6489 14.5345 84.6109 14.5345C83.8436 14.5345 83.2343 14.6025 82.783 14.7386C82.3316 14.8746 82.0044 15.056 81.8013 15.2828C81.6208 15.5095 81.5305 15.759 81.5305 16.0311C81.5305 16.4392 81.7674 16.768 82.2413 17.0175C82.7152 17.2442 83.3358 17.437 84.1031 17.5957C84.8929 17.7544 85.7505 17.9245 86.6757 18.1059C87.6235 18.2873 88.56 18.5367 89.4853 18.8542C90.4105 19.1717 91.2567 19.5912 92.024 20.1127C92.8138 20.6342 93.4457 21.3145 93.9196 22.1535C94.3935 22.9925 94.6304 24.0356 94.6304 25.2827C94.6304 26.734 94.213 28.0718 93.378 29.2963C92.5656 30.4981 91.347 31.4732 89.7222 32.2215C88.0974 32.9471 86.1228 32.7657 83.663 32.7657Z" fill="white"/>
<path d="M10.547 32.8065L10.5469 6.70047H0.864868V0.538827L61.0833 0.538835V6.70047H18.4716L18.4717 32.8065H10.547Z" fill="white"/>
<path d="M63.5184 6.70042V0.538793L71.4431 0.538789V6.70042L63.5184 6.70042Z" fill="white"/>
<path d="M96.823 32.8065V6.70039L73.6434 6.70041V0.538787L128.575 0.538757V6.70039H104.748V32.8065H96.823Z" fill="white"/>
<path d="M76.1072 61.9434V38.3041H87.6659C90.2791 38.3041 92.5797 38.7881 94.5676 39.7562C96.5554 40.7018 98.1078 42.0526 99.2245 43.8087C100.341 45.5647 100.9 47.6585 100.9 50.09C100.9 52.544 100.341 54.6603 99.2245 56.4389C98.1078 58.1949 96.5554 59.557 94.5676 60.5251C92.5797 61.4707 90.2791 61.9434 87.6659 61.9434H76.1072ZM84.014 55.7297H87.3308C88.4476 55.7297 89.4192 55.5158 90.2456 55.088C91.0944 54.6603 91.7533 54.0299 92.2223 53.1969C92.6914 52.3414 92.9259 51.3057 92.9259 50.09C92.9259 48.8968 92.6914 47.8836 92.2223 47.0506C91.7533 46.2176 91.0944 45.5872 90.2456 45.1595C89.4192 44.7317 88.4476 44.5179 87.3308 44.5179H84.014V55.7297Z" fill="white"/>
<path d="M50.1616 61.9434V38.3041H56.5648L68.3152 52.6903H65.3446V38.3041H72.9361V61.9434H66.5328L54.7825 47.5572H57.7531V61.9434H50.1616Z" fill="white"/>
<path d="M24.2159 61.9434L34.6364 38.3042L47.2787 38.3041V61.9434H40.0834V43.4603L32.3889 61.9434H24.2159ZM30.4137 57.8234L32.457 52.0825H40.0834V57.8234H30.4137Z" fill="white"/>
<path d="M7.56229 102.283L7.56214 73.3783H0V66.556H128.863V73.3783H16.2678L16.268 102.283H7.56229Z" fill="white"/>
<path d="M33.5063 102.88C29.5469 102.88 26.4606 101.799 24.2473 99.6365C22.034 97.4742 20.9273 94.4421 20.9273 90.54V76.187H29.633V90.2791C29.633 92.2674 29.9896 93.684 30.7028 94.5291C31.416 95.3492 32.3751 95.7593 33.5801 95.7593C34.8097 95.7593 35.7688 95.3492 36.4574 94.5291C37.1706 93.684 37.5272 92.2674 37.5272 90.2791V76.187H46.0853V90.54C46.0853 94.4421 44.9786 97.4742 42.7653 99.6365C40.552 101.799 37.4657 102.88 33.5063 102.88Z" fill="white"/>
<path d="M73.7763 102.283V76.187H61.3449C58.9348 76.187 56.8568 76.5847 55.1107 77.38C53.3401 78.1753 51.9752 79.3186 51.0161 80.8098C50.057 82.2762 49.5774 84.0159 49.5774 86.0291C49.5774 88.0422 50.057 89.782 51.0161 91.2484C51.9752 92.6899 53.3401 93.7959 55.1107 94.5663C56.8568 95.3368 58.9348 95.722 61.3449 95.722H68.9439L65.0706 92.1058V102.283H73.7763ZM58.32 102.283L64.6648 92.7769H55.4427L49.0241 102.283H58.32ZM65.0706 93.0751L68.9439 89.0861H61.8982C60.6932 89.0861 59.8078 88.8127 59.2422 88.2659C58.652 87.7191 58.3569 86.9735 58.3569 86.0291C58.3569 85.0846 58.652 84.339 59.2422 83.7923C59.8078 83.2455 60.6932 82.9721 61.8982 82.9721H68.9439L65.0706 78.9831V93.0751Z" fill="white"/>
<path d="M77.5621 102.283V76.187H84.7185L97.8508 92.0685H94.5308V76.187H103.015V102.283H95.8588L82.7265 86.4019H86.0465V102.283H77.5621Z" fill="white"/>
<path d="M116.911 102.283C114.747 102.283 110.654 102.283 110.654 102.283H105.992V96.1694H112.431C112.431 96.1694 115.485 96.1694 116.911 96.1694C117.748 96.1694 118.399 96.1197 118.867 96.0203C119.358 95.896 119.715 95.7345 119.936 95.5356C120.158 95.3119 120.268 95.051 120.268 94.7527C120.268 94.2805 120.01 93.9077 119.494 93.6343C118.977 93.3609 118.289 93.1372 117.428 92.9633C116.592 92.7644 115.67 92.5656 114.661 92.3668C113.653 92.1431 112.632 91.8573 111.6 91.5093C110.591 91.1614 109.657 90.7016 108.796 90.13C107.96 89.5583 107.284 88.8127 106.767 87.8931C106.251 86.9487 105.992 85.7806 105.992 84.3887C105.992 82.7733 106.435 81.3069 107.32 79.9896C108.23 78.6475 109.571 77.5788 111.341 76.7835C113.137 75.9882 115.288 76.187 117.944 76.187C119.69 76.187 123.256 76.187 123.256 76.187H128.863V82.301H123.256C123.256 82.301 119.076 82.301 117.944 82.301C117.108 82.301 116.444 82.3756 115.952 82.5247C115.461 82.6738 115.104 82.8727 114.883 83.1212C114.686 83.3697 114.588 83.6431 114.588 83.9414C114.588 84.3887 114.846 84.7491 115.362 85.0225C115.879 85.271 116.555 85.4823 117.391 85.6563C118.252 85.8303 119.186 86.0167 120.195 86.2155C121.227 86.4143 122.248 86.6877 123.256 87.0357C124.265 87.3836 125.187 87.8434 126.023 88.415C126.884 88.9867 127.572 89.7323 128.089 90.6519C128.605 91.5715 128.863 92.7147 128.863 94.0817C128.863 95.6723 128.408 97.1387 127.498 98.4808C126.613 99.798 125.285 100.867 123.515 101.687C121.744 102.482 119.592 102.283 116.911 102.283Z" fill="white"/>
<rect y="46.9526" width="19.6034" height="5.7657" rx="2.88285" fill="white"/>
<rect x="109.26" y="46.9526" width="19.6034" height="5.7657" rx="2.88285" fill="white"/>
</svg>
